<?xml version="1.0" encoding="utf-8"?>
<svg xmlns="http://www.w3.org/2000/svg" style="margin: auto; background: rgb(9, 9, 9) none repeat scroll 0% 0%; display: block; shape-rendering: auto;" width="33" height="25" preserveAspectRatio="xMidYMid">
<style type="text/css">
  text {
    text-anchor: middle; font-size: 18px; opacity: 0;
  }
</style>
<g transform="translate(16.5,12.5)">
  <g transform="translate(1,0)"><g class="path" style="transform-origin: -0.933319px -1.34167px 0px; transform: scale(0.89); animation: 1.21951s linear -0.115854s infinite normal forwards running breath-1eb6e17e-71f2-4a96-8285-e7f6cd803fb7;"><path d="M5.90-6.37L5.90-6.37L4.95-6.37L4.95-0.34L6.12-0.34L6.12 0L0.27 0L0.27-0.34L1.44-0.34L1.44-12.26L0.27-12.26L0.27-12.60L5.71-12.60L5.71-12.60Q8.05-12.60 9.03-12.36L9.03-12.36L9.03-12.36Q10.01-12.11 10.40-11.77L10.40-11.77L10.40-11.77Q11.27-11.07 11.27-9.54L11.27-9.54L11.27-9.54Q11.27-8.01 10.51-7.35L10.51-7.35L10.51-7.35Q9.76-6.70 8.21-6.57L8.21-6.57L8.21-6.52L8.21-6.52Q9.67-6.32 10.24-5.65L10.24-5.65L10.24-5.65Q10.82-4.99 10.82-3.42L10.82-3.42L10.82-2.47L10.82-2.47Q10.82-1.53 10.92-1.21L10.92-1.21L10.92-1.21Q11.02-0.88 11.34-0.88L11.34-0.88L11.34-0.88Q11.66-0.88 11.85-1.18L11.85-1.18L11.85-1.18Q12.04-1.48 12.20-2.43L12.20-2.43L12.51-2.39L12.51-2.39Q12.31-0.86 11.82-0.34L11.82-0.34L11.82-0.34Q11.32 0.18 9.85 0.18L9.85 0.18L9.85 0.18Q8.37 0.18 7.75-0.51L7.75-0.51L7.75-0.51Q7.13-1.21 7.13-3.11L7.13-3.11L7.13-4.43L7.13-4.43Q7.13-5.44 6.87-5.90L6.87-5.90L6.87-5.90Q6.61-6.37 5.90-6.37zM5.54-12.26L4.95-12.26L4.95-6.71L5.53-6.71L5.53-6.71Q6.55-6.71 7.05-7.34L7.05-7.34L7.05-7.34Q7.54-7.97 7.54-9.40L7.54-9.40L7.54-9.92L7.54-9.92Q7.54-11.34 7.07-11.80L7.07-11.80L7.07-11.80Q6.59-12.26 5.54-12.26L5.54-12.26" fill="#ffffff" stroke="none" stroke-width="none" transform="translate(-8.316673278808594,4.873498840332031)" style="fill: rgb(255, 255, 255);"></path></g><g class="path" style="transform-origin: 7.94997px 3.48333px 0px; transform: scale(0.89); animation: 1.21951s linear 0s infinite normal forwards running breath-1eb6e17e-71f2-4a96-8285-e7f6cd803fb7;"><path d="M15.26 0.18L15.26 0.18L15.26 0.18Q14.47 0.18 14.09-0.28L14.09-0.28L14.09-0.28Q13.70-0.74 13.70-1.40L13.70-1.40L13.70-1.40Q13.70-2.05 14.10-2.50L14.10-2.50L14.10-2.50Q14.51-2.95 15.25-2.95L15.25-2.95L15.25-2.95Q15.98-2.95 16.42-2.57L16.42-2.57L16.42-2.57Q16.85-2.20 16.85-1.44L16.85-1.44L16.85-1.44Q16.85-0.68 16.44-0.25L16.44-0.25L16.44-0.25Q16.04 0.18 15.26 0.18" fill="#ffffff" stroke="none" stroke-width="none" transform="translate(-8.316673278808594,4.873498840332031)" style="fill: rgb(255, 255, 255);"></path></g></g>
</g>
<style id="breath-1eb6e17e-71f2-4a96-8285-e7f6cd803fb7" data-anikit="">@keyframes breath-1eb6e17e-71f2-4a96-8285-e7f6cd803fb7
{
  0% {
    animation-timing-function: cubic-bezier(0.9647,0.2413,-0.0705,0.7911);
    transform: scale(0.89);
  }
  51% {
    animation-timing-function: cubic-bezier(0.9226,0.2631,-0.0308,0.7628);
    transform: scale(1.04992);
  }
  100% {
    transform: scale(0.89);
  }
}</style><style id="breath-1eb6e17e-71f2-4a96-8285-e7f6cd803fb7" data-anikit="">@keyframes breath-1eb6e17e-71f2-4a96-8285-e7f6cd803fb7
{
  0% {
    animation-timing-function: cubic-bezier(0.9647,0.2413,-0.0705,0.7911);
    transform: scale(0.89);
  }
  51% {
    animation-timing-function: cubic-bezier(0.9226,0.2631,-0.0308,0.7628);
    transform: scale(1.04992);
  }
  100% {
    transform: scale(0.89);
  }
}</style></svg>